# xmcd
#
# Track frame offsets:
#  150
#  23911
#  36288
#  54227
#  74084
#  90293
#  105279
#  117820
#  129045
#  145561
#  165075
#  181225
#  199991
#  216378
#  230747
#  245435
#  264894
#  282895
#  303820
#  316107
#  329736
#
# Disc length: 4689 seconds
#
# Revision: 0
# Processed by: cddbd v1.5.1PL0 Copyright (c) Steve Scherf et al.
# Submitted via: Collectorz.com Music Collector 6.9
#
DISCID=18124f15
DTITLE=James Brown - Gold
DYEAR=2000
DGENRE=
TTITLE0=Get Up I Feel Like Being A Sex Machine
TTITLE1=I Got You (I Feel Good)
TTITLE2=It's Too Funky In Here
TTITLE3=Soul Power
TTITLE4=Night Train
TTITLE5=It's A Man's ,Man's, Man's World
TTITLE6=Please, Please, Please
TTITLE7=Try Me
TTITLE8=There Was A Time
TTITLE9=Hot Pants
TTITLE10=Get On The Good Foot
TTITLE11=Get Up Off A That Thing
TTITLE12=Hey America 
TTITLE13=Give It Up Or Turn It In A Loose
TTITLE14=Mother Popcorn
TTITLE15=Papa's Got A Brand New Bag
TTITLE16=Funky President (People It's Bad)
TTITLE17=My Thang
TTITLE18=I Got The Feeling
TTITLE19=Say It Aloud I'm Black And I'm Proud
TTITLE20=Licking Stick-Licking Stick
EXTD=
EXTT0=
EXTT1=
EXTT2=
EXTT3=
EXTT4=
EXTT5=
EXTT6=
EXTT7=
EXTT8=
EXTT9=
EXTT10=
EXTT11=
EXTT12=
EXTT13=
EXTT14=
EXTT15=
EXTT16=
EXTT17=
EXTT18=
EXTT19=
EXTT20=
PLAYORDER=
